# xmcd
#
# Track frame offsets:
#	150
#	21180
#	42577
#	60745
#	78590
#	100982
#	124022
#	159532
#	201655
#	229362
#
# Disc length: 3292 seconds
# Revision: 0
# Processed by: cddbd v1.5.2PL0 Copyright (c) Steve Scherf et al.
# Submitted via: dBpowerAMP V12.0
#
DISCID=8e0cda0a
DTITLE=Lisa Stansfield - Live - Rare - Mixed
DYEAR=2003
DGENRE=
TTITLE0=There Was I
TTITLE1=Dirty Talk
TTITLE2=The Answer
TTITLE3=Sing It
TTITLE4=Big Thing
TTITLE5=Tenderly [Live at Wembley 1992]
TTITLE6=Live Together - Young Hearts Run Free [Live at Wembley 1992]
TTITLE7=People Hold On (Full Length Disco Mix)
TTITLE8=Change (Driza Bone Remix)
TTITLE9=Live Together (Massive Attack Big Beat Mix)
EXTD=
EXTT0=
EXTT1=
EXTT2=
EXTT3=
EXTT4=
EXTT5=
EXTT6=
EXTT7=
EXTT8=
EXTT9=
PLAYORDER=
